<?xml version="1.0" encoding="UTF-8"?>
<svg id="b" data-name="Layer 2" xmlns="http://www.w3.org/2000/svg" viewBox="0 0 426.378 426.494">
  <g id="c" data-name="Layer 1">
    <path d="M426.209,225.376c1.59-12.63-8.237-23.998-21.058-24.163l-19.152-.247c-2.422-29.772-11.243-57.17-27.484-81.876l-17.536,17.5c11.771,19.983,18.649,41.152,20.602,64.551l-104.964.021c-2.353,0-4.472-1.418-5.372-3.593-.01-.024-.02-.048-.03-.071-.904-2.175-.413-4.678,1.253-6.344l120.117-120.185c-8.255-9.59-22.678-11.004-31.568-2.388l-14.191,13.753c-22.403-19.137-48.322-32.439-77.335-38.463l.027,24.84c22.147,5.672,41.674,15.604,60.118,30.875l-74.316,74.384c-1.672,1.673-4.184,2.167-6.368,1.258-.024-.01-.048-.02-.072-.03-2.18-.902-3.601-3.026-3.601-5.385l-.016-169.665c-13.006-1.489-24.031,8.612-24.095,21.536l-.092,18.651c-29.617,2.39-57.052,11.237-82.007,27.507l17.651,17.51c20.39-11.925,41.433-18.659,64.452-20.588l-.089,105.115c-.002,2.326-1.405,4.419-3.555,5.307-.024.01-.047.019-.07.029-2.151.894-4.625.407-6.273-1.239L71.122,54c-9.832,7.632-11.293,22.424-2.615,31.36l13.838,14.25c-19.259,22.447-32.201,48.024-38.529,77.335l24.77.107c5.918-22.481,16.173-42.732,31.11-60.276l74.219,74.24c1.689,1.69,2.186,4.228,1.267,6.433-.01.024-.02.048-.03.072-.912,2.199-3.056,3.633-5.437,3.634l-169.53.01c-1.709,12.923,8.689,24.112,21.957,24.245l18.244.183c2.335,29.673,11.2,56.944,27.503,81.865l17.57-17.58c-11.902-19.994-18.685-41.205-20.709-64.492l105.054.005c2.34,0,4.447,1.409,5.344,3.57.01.024.02.047.03.071.904,2.167.416,4.662-1.244,6.323l-120.07,120.164c8.713,10.226,23.442,10.746,32.691,1.562l13.047-12.954c22.487,19.171,48.379,32.385,77.422,38.487l-.091-24.88c-22.257-5.653-42.401-15.995-60.09-30.957l74.421-74.266c1.632-1.629,4.082-2.11,6.212-1.225.023.01.047.019.07.029,2.131.88,3.522,2.955,3.523,5.26l.11,169.798c13.682,1.364,24.305-9.145,24.243-23.012l-.078-17.212c28.973-2.371,56.293-10.874,81.89-27.403l-17.271-17.688c-20.086,11.669-41.483,18.779-64.689,20.615l.009-104.978c0-2.366,1.426-4.497,3.612-5.402.024-.01.048-.02.072-.03,2.19-.912,4.711-.417,6.389,1.26l118.94,118.944c3.623,3.623,16.106-17.284,4.015-29.823l-14.238-14.765c19.186-22.636,32.303-48.131,38.451-77.344l-24.842.009c-5.926,22.822-16.172,42.658-30.978,60.004l-74.26-74.275c-1.644-1.644-2.128-4.114-1.233-6.26.01-.023.019-.047.029-.07.887-2.14,2.974-3.536,5.291-3.536l169.68-.033Z" fill="#fff"/>
  </g>
</svg>